<svg width="78" height="78" viewBox="0 0 78 78" fill="none" xmlns="http://www.w3.org/2000/svg">
<circle cx="39" cy="39" r="39" fill="#15B700"/>
<path d="M26.4467 36.1767C29.8067 42.78 35.22 48.17 41.8233 51.5533L46.9567 46.42C47.5867 45.79 48.52 45.58 49.3367 45.86C51.95 46.7233 54.7733 47.19 57.6667 47.19C58.95 47.19 60 48.24 60 49.5233V57.6667C60 58.95 58.95 60 57.6667 60C35.7567 60 18 42.2433 18 20.3333C18 19.05 19.05 18 20.3333 18H28.5C29.7833 18 30.8333 19.05 30.8333 20.3333C30.8333 23.25 31.3 26.05 32.1633 28.6633C32.42 29.48 32.2333 30.39 31.58 31.0433L26.4467 36.1767Z" fill="white"/>
</svg>
